<?xml version="1.0" encoding="UTF-8" standalone="no"?><!DOCTYPE svg PUBLIC "-//W3C//DTD SVG 1.1//EN" "http://www.w3.org/Graphics/SVG/1.1/DTD/svg11.dtd"><svg width="100%" height="100%" viewBox="0 0 5334 3000" version="1.1" xmlns="http://www.w3.org/2000/svg" xmlns:xlink="http://www.w3.org/1999/xlink" xml:space="preserve" xmlns:serif="http://www.serif.com/" style="fill-rule:evenodd;clip-rule:evenodd;stroke-linecap:round;stroke-linejoin:round;"><rect x="0" y="0" width="5333.333" height="3000" style="fill:url(#_Linear1);"/><g id="audio_manager"><path d="M2714.945,363.358c-16.434,-1.667 -32.754,4.304 -44.232,16.183l-307.47,307.47l-152.117,0c-50.166,0 -90.623,36.141 -90.623,80.913l0,323.652c0,44.772 40.457,80.913 90.623,80.913l152.117,0l307.47,307.47c35.602,36.141 97.096,10.788 97.096,-39.917l0,-1019.505c0.085,-29.803 -23.145,-54.929 -52.863,-57.179" style="fill:url(#_Linear2);fill-rule:nonzero;"/><path d="M2889.178,646.554c242.739,283.196 0,566.392 0,566.392m161.826,-728.218c364.109,445.022 0,890.044 0,890.044" style="fill:none;fill-rule:nonzero;stroke:url(#_Linear3);stroke-width:89px;"/><circle cx="2666.667" cy="930.017" r="753.653" style="fill:none;stroke:url(#_Linear4);stroke-width:88.89px;stroke-miterlimit:1.5;"/></g><g id="Layer1"><g transform="matrix(600,0,0,600,4687.711589,2300.201241)"></g><text x="613.981px" y="2300.201px" style="font-family:'Bauhaus93', 'Bauhaus 93', fantasy;font-size:600px;fill:url(#_Linear5);stroke:url(#_Linear6);stroke-width:4.17px;stroke-linecap:butt;stroke-miterlimit:2;">Audio Manager</text><g transform="matrix(700.232876,0,0,700.232876,3265.352099,2875.568701)"></g><text x="2035.158px" y="2875.569px" style="font-family:'Bauhaus93', 'Bauhaus 93', fantasy;font-size:700.233px;fill:url(#_Linear7);">Plus</text></g><defs><linearGradient id="_Linear1" x1="0" y1="0" x2="1" y2="0" gradientUnits="userSpaceOnUse" gradientTransform="matrix(5333.333333,0,0,3000,0,1500)"><stop offset="0" style="stop-color:#000;stop-opacity:1"/><stop offset="0.47" style="stop-color:#64381f;stop-opacity:1"/><stop offset="1" style="stop-color:#000;stop-opacity:1"/></linearGradient><linearGradient id="_Linear2" x1="0" y1="0" x2="1" y2="0" gradientUnits="userSpaceOnUse" gradientTransform="matrix(647.304905,0,0,1133.867993,2120.50335,930.016863)"><stop offset="0" style="stop-color:#ffff14;stop-opacity:1"/><stop offset="1" style="stop-color:#ff3900;stop-opacity:1"/></linearGradient><linearGradient id="_Linear3" x1="0" y1="0" x2="1" y2="0" gradientUnits="userSpaceOnUse" gradientTransform="matrix(323.652336,0,0,890.043924,2889.177648,929.749473)"><stop offset="0" style="stop-color:#ffff12;stop-opacity:1"/><stop offset="1" style="stop-color:#e82e00;stop-opacity:1"/></linearGradient><linearGradient id="_Linear4" x1="0" y1="0" x2="1" y2="0" gradientUnits="userSpaceOnUse" gradientTransform="matrix(1661.111552,0,0,1608.572589,1759.208176,879.38363)"><stop offset="0" style="stop-color:#ff0;stop-opacity:1"/><stop offset="1" style="stop-color:#ff401f;stop-opacity:1"/></linearGradient><linearGradient id="_Linear5" x1="0" y1="0" x2="1" y2="0" gradientUnits="userSpaceOnUse" gradientTransform="matrix(1924.28142,0,0,265.73078,629.185663,2231.920287)"><stop offset="0" style="stop-color:#fc0c24;stop-opacity:1"/><stop offset="1" style="stop-color:#e2e200;stop-opacity:1"/></linearGradient><linearGradient id="_Linear6" x1="0" y1="0" x2="1" y2="0" gradientUnits="userSpaceOnUse" gradientTransform="matrix(4041.503906,0,0,558.105469,645.914714,2156.793038)"><stop offset="0" style="stop-color:#ff0;stop-opacity:1"/><stop offset="1" style="stop-color:#f10000;stop-opacity:1"/></linearGradient><linearGradient id="_Linear7" x1="0" y1="0" x2="1" y2="0" gradientUnits="userSpaceOnUse" gradientTransform="matrix(1188.481189,0,0,489.957867,2072.426072,2642.214727)"><stop offset="0" style="stop-color:#ffff15;stop-opacity:1"/><stop offset="1" style="stop-color:#ff3a17;stop-opacity:1"/></linearGradient></defs></svg>